<?xml version="1.0" standalone="no"?><!DOCTYPE svg PUBLIC "-//W3C//DTD SVG 1.1//EN" "http://www.w3.org/Graphics/SVG/1.1/DTD/svg11.dtd"><svg t="1710250530496" class="icon" viewBox="0 0 1024 1024" version="1.1" xmlns="http://www.w3.org/2000/svg" p-id="7561" xmlns:xlink="http://www.w3.org/1999/xlink" width="200" height="200"><path d="" fill="#F2EBFF" p-id="7562"></path><path d="M408.871656 242.860023l409.237689 708.814269a7.18418 7.18418 0 0 1-2.630477 9.802249l-52.224894 30.151222a7.171772 7.171772 0 0 1-9.802249-2.630477L344.201629 280.195425l64.670027-37.335402m9.119814-33.89841l-21.490501 12.40791-64.670027 37.335401-21.4905 12.40791 12.40791 21.490501 409.163242 708.814269a31.987592 31.987592 0 0 0 43.700659 11.713067l52.224893-30.151222a32.037224 32.037224 0 0 0 11.713067-43.713067L430.39938 230.452113l-12.40791-21.4905z" fill="#6244E2" p-id="7563"></path><path d="M367.838697 163.176425l-72.127181 41.640946 32.248158 47.236914 64.65762-37.335402-24.778597-51.542458z" fill="#D7CAFF" p-id="7564"></path><path d="M367.838697 163.176425l24.81582 51.542458-64.694843 37.335402-32.260566-47.236914 72.127181-41.640946m10.770066-34.866227l-23.177976 13.375727-72.127181 41.640946-23.177976 13.375727 15.088019 22.098488 32.260566 47.236913 12.978674 19.008918 19.927103-11.502132 64.670027-37.335402 19.927104-11.502132-9.926328-20.733618-24.81582-51.542458-11.601396-24.120977z" fill="#6244E2" p-id="7565"></path><path d="M303.342381 25.783637L208.521132 80.527336a7.18418 7.18418 0 0 0-1.96045 10.770066l70.141916 85.428461 75.861962-43.799923-38.911206-103.457154a7.18418 7.18418 0 0 0-10.310973-3.685149z" fill="#F2EBFF" p-id="7566"></path><path d="M306.928267 24.81582a7.18418 7.18418 0 0 1 6.725087 4.652966l38.911206 103.457154-75.861962 43.799923-70.141916-85.428461a7.18418 7.18418 0 0 1 1.96045-10.770066l94.821249-54.743699a7.134548 7.134548 0 0 1 3.585886-0.967817m0-24.81582a32.024816 32.024816 0 0 0-15.993796 4.293137L196.113222 59.036836a32 32 0 0 0-8.685537 48.018612l70.141916 85.42846 13.363319 16.266771 18.22722-10.521908 75.861962-43.799923 18.227219-10.534315-7.444746-19.703761-38.911205-103.457154A32.161303 32.161303 0 0 0 306.940675 0z" fill="#6244E2" p-id="7567"></path><path d="M815.478868 961.488949a7.18418 7.18418 0 0 0 2.630477-9.802249L408.871656 242.860023l-32.558356 18.797984 412.823575 715.030632z" fill="#D7CAFF" p-id="7568"></path><path d="M392.617294 214.718883l-24.778597-51.542458-36.280729 20.95696 28.513377 49.383482 32.545949-18.797984z" fill="#AF9CFF" p-id="7569"></path><path d="M303.342381 25.783637L255.931756 53.155487l58.701823 101.670415 37.930981-21.899962-38.911206-103.457154a7.18418 7.18418 0 0 0-10.310973-3.685149z" fill="#D7CAFF" p-id="7570"></path><path d="M812.327259 188.401706v-0.483908a76.072896 76.072896 0 0 0 0-13.847228V61.952695a7.18418 7.18418 0 0 0-10.770066-6.203955l-97.104304 56.058937c-4.181466 1.935634-12.40791 7.171772-12.40791 7.171772s-15.323769 10.74525-21.55254 23.848004c-17.99147 37.881349-8.561458 82.8228 27.669639 103.928654a76.17216 76.17216 0 0 0 114.152773-58.317177z" fill="#F2EBFF" p-id="7571"></path><path d="M805.19271 54.768515a7.18418 7.18418 0 0 1 7.196588 7.18418v112.117875a76.072896 76.072896 0 0 1 0 13.847228v0.483908a76.296239 76.296239 0 0 1-114.152772 58.317177c-36.231097-21.093447-45.623885-65.997674-27.632416-103.928654 6.203955-13.115161 21.55254-23.860411 21.55254-23.860411s8.25126-5.248546 12.40791-7.171772l97.104304-56.058938a7.12214 7.12214 0 0 1 3.573478-0.967817m0-24.81582a32.024816 32.024816 0 0 0-16.043428 4.379992l-96.29779 55.599845c-5.186506 2.556029-12.048081 6.861574-14.145017 8.189221l-0.471501 0.29779-0.459092 0.322605c-3.461807 2.481582-21.093447 15.423032-29.778984 33.501358-11.34083 23.910043-14.244281 50.512602-8.176813 74.906552a97.278015 97.278015 0 0 0 45.735556 61.108957 100.98798 100.98798 0 0 0 151.376503-77.375727v-0.632803a101.174098 101.174098 0 0 0 0.099263-17.16014V61.952695a32.037224 32.037224 0 0 0-32.012408-32z" fill="#6244E2" p-id="7572"></path><path d="M812.327259 188.401706v-0.483908a76.085304 76.085304 0 0 0 0-13.847228V61.952695a7.109732 7.109732 0 0 0-3.647926-6.203955l-110.269096 191.119038a76.17216 76.17216 0 0 0 113.966653-58.466072z" fill="#D7CAFF" p-id="7573"></path><path d="M657.094378 249.444901l64.666304 37.335401-409.237689 708.820473a7.18418 7.18418 0 0 1-9.814656 2.629237l-52.222412-30.151222a7.18418 7.18418 0 0 1-2.630477-9.814657l409.237689-708.819232z" fill="#F2EBFF" p-id="7574"></path><path d="M657.091896 249.436216l64.670027 37.335401-409.237689 708.826677a7.171772 7.171772 0 0 1-9.802249 2.630477l-52.237301-30.163629a7.18418 7.18418 0 0 1-2.630477-9.802249l409.237689-708.826677m-9.08259-33.898411l-12.40791 21.490501L226.363707 945.854983a32 32 0 0 0 11.713067 43.700659l52.224893 30.151221a31.987592 31.987592 0 0 0 43.700659-11.713067l409.23769-708.814269 12.40791-21.4905-21.490501-12.40791-64.657619-37.335402-21.4905-12.40791z" fill="#6244E2" p-id="7575"></path><path d="M302.709577 998.228771a7.18418 7.18418 0 0 0 9.802249-2.630477l409.237689-708.826677-34.816595-20.100814L274.059713 981.713843z" fill="#D7CAFF" p-id="7576"></path><path d="M261.589763 133.707639a12.40791 12.40791 0 0 1-10.14967-5.248546L216.238852 78.616518a12.410392 12.410392 0 1 1 20.274525-14.318728l35.201241 49.842574a12.40791 12.40791 0 0 1-10.124855 19.567275zM317.760372 126.771617a12.40791 12.40791 0 0 1-11.167119-6.88639L266.962389 40.151997a12.40791 12.40791 0 1 1 22.222566-11.04304l39.630865 79.73323a12.40791 12.40791 0 0 1-11.105079 17.92943zM760.151997 197.174098a12.40791 12.40791 0 0 1-10.571539-18.884839l6.625824-10.819697a320.843738 320.843738 0 0 0 36.69019-86.110896l7.804575-29.778984a12.40791 12.40791 0 1 1 23.996898 6.29081l-7.804575 29.778985a345.684374 345.684374 0 0 1-39.519194 92.761535l-6.625824 10.819698a12.40791 12.40791 0 0 1-10.596355 5.943388z" fill="#6244E2" p-id="7577"></path></svg>