<?xml version="1.0" standalone="no"?><!DOCTYPE svg PUBLIC "-//W3C//DTD SVG 1.1//EN" "http://www.w3.org/Graphics/SVG/1.1/DTD/svg11.dtd"><svg t="1711534075066" class="icon" viewBox="0 0 1219 1024" version="1.1" xmlns="http://www.w3.org/2000/svg" p-id="7536" xmlns:xlink="http://www.w3.org/1999/xlink" width="238.0859375" height="200"><path d="M133.461333 840.996571a41.008762 41.008762 0 0 1-31.548952-14.726095 39.984762 39.984762 0 0 1-8.533333-33.401905c11.117714-55.734857 23.113143-120.539429 27.599238-150.528l-1.560381-1.462857C42.374095 570.172952 0 477.671619 0 380.489143c0-52.175238 11.995429-102.692571 35.644952-150.186667a381.952 381.952 0 0 1 95.817143-120.929524C214.552381 38.863238 324.461714 0 441.197714 0c104.838095 0 206.360381 32.182857 285.988572 90.648381 80.213333 58.904381 133.412571 140.580571 149.747809 230.009905 4.047238 21.942857-10.727619 42.910476-32.914285 46.908952a40.813714 40.813714 0 0 1-47.396572-32.52419c-12.678095-69.193143-54.613333-132.973714-118.150095-179.590096-65.633524-48.176762-149.894095-74.752-237.275429-74.752-198.265905 0-359.521524 134.485333-359.521524 299.788191 0 74.50819 33.158095 145.993143 93.330286 201.289143 4.632381 4.242286 9.362286 8.387048 14.238476 12.336762 17.505524 14.384762 15.506286 34.133333 14.57981 43.641904a438.662095 438.662095 0 0 1-3.023238 22.528c-2.340571 15.11619-5.90019 35.693714-10.630095 61.244953l-0.390096 2.243047 13.994667-7.558095c26.819048-14.287238 48.615619-25.648762 64.853333-33.645714 30.427429-15.067429 44.617143-21.504 62.171429-16.774095a432.761905 432.761905 0 0 0 172.763428 9.898666 40.764952 40.764952 0 0 1 46.372572 34.03581 40.472381 40.472381 0 0 1-34.377143 45.83619 515.705905 515.705905 0 0 1-193.926095-8.777143c-26.672762 12.04419-103.472762 53.101714-168.17981 89.039239a41.20381 41.20381 0 0 1-19.992381 5.168761z" fill="#2C2C2C" p-id="7537"></path><path d="M228.888381 250.002286c0 32.768 31.402667 59.343238 70.168381 59.343238 38.716952 0 70.168381-26.575238 70.168381-59.343238 0-32.719238-31.451429-59.294476-70.217143-59.294476-38.716952 0-70.119619 26.575238-70.119619 59.294476zM522.191238 250.002286c0 32.768 31.402667 59.343238 70.168381 59.343238 38.716952 0 70.119619-26.575238 70.119619-59.343238 0-32.719238-31.402667-59.294476-70.119619-59.294476-38.765714 0-70.217143 26.575238-70.217143 59.294476zM1100.117333 1024a41.155048 41.155048 0 0 1-19.992381-5.168762c-52.760381-29.354667-115.565714-62.902857-139.312762-73.874286a435.492571 435.492571 0 0 1-100.059428 11.556572c-99.913143 0-194.072381-33.304381-265.264762-93.720381a328.313905 328.313905 0 0 1-82.358857-103.911619 288.036571 288.036571 0 0 1 0-258.876953c19.504762-39.009524 47.152762-73.97181 82.407619-103.862857 71.094857-60.464762 165.302857-93.769143 265.216-93.769143s194.072381 33.304381 265.264762 93.720381a328.313905 328.313905 0 0 1 82.310095 103.911619c20.382476 40.96 30.72 84.504381 30.72 129.462858 0 83.236571-36.08381 162.377143-101.522286 223.085714 4.047238 26.282667 13.750857 78.409143 22.674286 123.270095a39.984762 39.984762 0 0 1-8.533333 33.450667 41.008762 41.008762 0 0 1-31.548953 14.726095z m-156.964571-161.694476c12.678095 0 25.35619 5.948952 45.884952 16.091428 13.750857 6.826667 32.182857 16.384 54.857143 28.476953l0.097524 0.097524c-2.974476-16.579048-5.36381-30.232381-6.972952-40.716191a374.491429 374.491429 0 0 1-2.584381-19.309714c-0.828952-8.387048-2.779429-28.038095 14.628571-42.276572a278.918095 278.918095 0 0 0 11.702857-10.191238c49.39581-45.348571 76.604952-104.009143 76.604953-165.010285 0-135.850667-133.071238-246.345143-296.618667-246.345143-163.59619 0-296.667429 110.494476-296.667429 246.345143 0 135.801905 133.12 246.296381 296.667429 246.296381 31.207619 0 61.927619-3.998476 91.331048-11.897905a42.081524 42.081524 0 0 1 11.068952-1.560381z" fill="#2C2C2C" p-id="7538"></path><path d="M901.412571 519.509333c0 27.599238 26.477714 49.980952 59.148191 49.980953s59.14819-22.430476 59.14819-49.980953c0-27.648-26.477714-50.029714-59.14819-50.029714s-59.14819 22.430476-59.148191 50.029714zM654.189714 519.509333c0 27.599238 26.477714 49.980952 59.148191 49.980953s59.14819-22.430476 59.14819-49.980953c0-27.648-26.477714-50.029714-59.14819-50.029714s-59.14819 22.430476-59.148191 50.029714z" fill="#2C2C2C" p-id="7539"></path></svg>